<mxfile host="app.diagrams.net" modified="2022-06-22T13:04:16.715Z" agent="5.0 (Windows NT 10.0; Win64; x64) AppleWebKit/537.36 (KHTML, like Gecko) Chrome/101.0.0.0 Safari/537.36" etag="9WxNY8m9Hs1pr62sdxKd" version="20.0.1" type="github">
  <diagram id="ILjuEE7dXItKwzjSuYEl" name="Page-1">
    <mxGraphModel dx="815" dy="505" grid="1" gridSize="10" guides="1" tooltips="1" connect="1" arrows="1" fold="1" page="1" pageScale="1" pageWidth="827" pageHeight="1169" math="0" shadow="0">
      <root>
        <mxCell id="0" />
        <mxCell id="1" parent="0" />
        <mxCell id="b52QZDlkduQ0GEX2dBQ2-1" value="浏览器" style="whiteSpace=wrap;html=1;aspect=fixed;" vertex="1" parent="1">
          <mxGeometry x="110" y="270" width="80" height="80" as="geometry" />
        </mxCell>
        <mxCell id="b52QZDlkduQ0GEX2dBQ2-2" value="服务器" style="whiteSpace=wrap;html=1;aspect=fixed;" vertex="1" parent="1">
          <mxGeometry x="620" y="270" width="80" height="80" as="geometry" />
        </mxCell>
        <mxCell id="b52QZDlkduQ0GEX2dBQ2-3" value="" style="endArrow=classic;html=1;rounded=0;entryX=0;entryY=0.25;entryDx=0;entryDy=0;" edge="1" parent="1" target="b52QZDlkduQ0GEX2dBQ2-2">
          <mxGeometry width="50" height="50" relative="1" as="geometry">
            <mxPoint x="190" y="290" as="sourcePoint" />
            <mxPoint x="240" y="240" as="targetPoint" />
          </mxGeometry>
        </mxCell>
        <mxCell id="b52QZDlkduQ0GEX2dBQ2-4" value="" style="endArrow=classic;html=1;rounded=0;entryX=1;entryY=0.75;entryDx=0;entryDy=0;" edge="1" parent="1" target="b52QZDlkduQ0GEX2dBQ2-1">
          <mxGeometry width="50" height="50" relative="1" as="geometry">
            <mxPoint x="620" y="330" as="sourcePoint" />
            <mxPoint x="670" y="280" as="targetPoint" />
          </mxGeometry>
        </mxCell>
        <mxCell id="b52QZDlkduQ0GEX2dBQ2-5" value="http: 传输明文,不安全" style="text;html=1;strokeColor=none;fillColor=none;align=center;verticalAlign=middle;whiteSpace=wrap;rounded=0;" vertex="1" parent="1">
          <mxGeometry x="110" y="210" width="130" height="30" as="geometry" />
        </mxCell>
        <mxCell id="b52QZDlkduQ0GEX2dBQ2-6" value="对称加密&lt;br&gt;f1(k,data)=x&lt;br&gt;f2(k,x)=data&lt;br&gt;data: 明文&lt;br&gt;x: 密文&lt;br&gt;k 公钥" style="text;html=1;strokeColor=none;fillColor=none;align=center;verticalAlign=middle;whiteSpace=wrap;rounded=0;" vertex="1" parent="1">
          <mxGeometry x="80" y="430" width="200" height="80" as="geometry" />
        </mxCell>
        <mxCell id="b52QZDlkduQ0GEX2dBQ2-7" value="明文传输" style="text;html=1;strokeColor=none;fillColor=none;align=center;verticalAlign=middle;whiteSpace=wrap;rounded=0;" vertex="1" parent="1">
          <mxGeometry x="360" y="260" width="60" height="30" as="geometry" />
        </mxCell>
        <mxCell id="b52QZDlkduQ0GEX2dBQ2-8" value="浏览器" style="whiteSpace=wrap;html=1;aspect=fixed;" vertex="1" parent="1">
          <mxGeometry x="110" y="520" width="80" height="80" as="geometry" />
        </mxCell>
        <mxCell id="b52QZDlkduQ0GEX2dBQ2-9" value="服务器" style="whiteSpace=wrap;html=1;aspect=fixed;" vertex="1" parent="1">
          <mxGeometry x="620" y="520" width="80" height="80" as="geometry" />
        </mxCell>
        <mxCell id="b52QZDlkduQ0GEX2dBQ2-10" value="" style="endArrow=classic;html=1;rounded=0;entryX=0;entryY=0.25;entryDx=0;entryDy=0;" edge="1" parent="1" target="b52QZDlkduQ0GEX2dBQ2-9">
          <mxGeometry width="50" height="50" relative="1" as="geometry">
            <mxPoint x="190" y="540" as="sourcePoint" />
            <mxPoint x="240" y="490" as="targetPoint" />
          </mxGeometry>
        </mxCell>
        <mxCell id="b52QZDlkduQ0GEX2dBQ2-11" value="" style="endArrow=classic;html=1;rounded=0;entryX=1;entryY=0.75;entryDx=0;entryDy=0;" edge="1" parent="1" target="b52QZDlkduQ0GEX2dBQ2-8">
          <mxGeometry width="50" height="50" relative="1" as="geometry">
            <mxPoint x="620" y="580" as="sourcePoint" />
            <mxPoint x="670" y="530" as="targetPoint" />
          </mxGeometry>
        </mxCell>
        <mxCell id="b52QZDlkduQ0GEX2dBQ2-13" value="k&amp;nbsp;" style="text;html=1;strokeColor=none;fillColor=none;align=center;verticalAlign=middle;whiteSpace=wrap;rounded=0;" vertex="1" parent="1">
          <mxGeometry x="700" y="520" width="60" height="30" as="geometry" />
        </mxCell>
        <mxCell id="b52QZDlkduQ0GEX2dBQ2-14" value="k1" style="text;html=1;strokeColor=none;fillColor=none;align=center;verticalAlign=middle;whiteSpace=wrap;rounded=0;" vertex="1" parent="1">
          <mxGeometry x="50" y="520" width="60" height="30" as="geometry" />
        </mxCell>
        <mxCell id="b52QZDlkduQ0GEX2dBQ2-15" value="黑客" style="shape=umlActor;verticalLabelPosition=bottom;verticalAlign=top;html=1;outlineConnect=0;" vertex="1" parent="1">
          <mxGeometry x="384" y="710" width="30" height="60" as="geometry" />
        </mxCell>
        <mxCell id="b52QZDlkduQ0GEX2dBQ2-17" value="k&amp;nbsp;" style="text;html=1;strokeColor=none;fillColor=none;align=center;verticalAlign=middle;whiteSpace=wrap;rounded=0;" vertex="1" parent="1">
          <mxGeometry x="440" y="690" width="60" height="30" as="geometry" />
        </mxCell>
        <mxCell id="b52QZDlkduQ0GEX2dBQ2-18" value="x 密文(k+data)" style="text;html=1;strokeColor=none;fillColor=none;align=center;verticalAlign=middle;whiteSpace=wrap;rounded=0;" vertex="1" parent="1">
          <mxGeometry x="340" y="510" width="100" height="30" as="geometry" />
        </mxCell>
        <mxCell id="b52QZDlkduQ0GEX2dBQ2-19" value="" style="endArrow=classic;html=1;rounded=0;" edge="1" parent="1">
          <mxGeometry width="50" height="50" relative="1" as="geometry">
            <mxPoint x="384" y="710" as="sourcePoint" />
            <mxPoint x="420" y="670" as="targetPoint" />
          </mxGeometry>
        </mxCell>
        <mxCell id="b52QZDlkduQ0GEX2dBQ2-20" value="&#xa;&lt;span style=&quot;color: rgb(0, 0, 0); font-family: Helvetica; font-size: 12px; font-style: normal; font-variant-ligatures: normal; font-variant-caps: normal; font-weight: 400; letter-spacing: normal; orphans: 2; text-align: center; text-indent: 0px; text-transform: none; widows: 2; word-spacing: 0px; -webkit-text-stroke-width: 0px; background-color: rgb(248, 249, 250); text-decoration-thickness: initial; text-decoration-style: initial; text-decoration-color: initial; float: none; display: inline !important;&quot;&gt;x 密文(k1+data)&lt;/span&gt;&#xa;&#xa;" style="text;html=1;strokeColor=none;fillColor=none;align=center;verticalAlign=middle;whiteSpace=wrap;rounded=0;" vertex="1" parent="1">
          <mxGeometry x="440" y="650" width="100" height="30" as="geometry" />
        </mxCell>
        <mxCell id="b52QZDlkduQ0GEX2dBQ2-21" value="k 唯一,绝对安全" style="text;html=1;strokeColor=none;fillColor=none;align=center;verticalAlign=middle;whiteSpace=wrap;rounded=0;" vertex="1" parent="1">
          <mxGeometry x="660" y="470" width="90" height="30" as="geometry" />
        </mxCell>
        <mxCell id="b52QZDlkduQ0GEX2dBQ2-22" value="k1&lt;span style=&quot;color: rgba(0, 0, 0, 0); font-family: monospace; font-size: 0px; text-align: start;&quot;&gt;%3CmxGraphModel%3E%3Croot%3E%3CmxCell%20id%3D%220%22%2F%3E%3CmxCell%20id%3D%221%22%20parent%3D%220%22%2F%3E%3CmxCell%20id%3D%222%22%20value%3D%22k%26amp%3Bnbsp%3B%22%20style%3D%22text%3Bhtml%3D1%3BstrokeColor%3Dnone%3BfillColor%3Dnone%3Balign%3Dcenter%3BverticalAlign%3Dmiddle%3BwhiteSpace%3Dwrap%3Brounded%3D0%3B%22%20vertex%3D%221%22%20parent%3D%221%22%3E%3CmxGeometry%20x%3D%22700%22%20y%3D%22520%22%20width%3D%2260%22%20height%3D%2230%22%20as%3D%22geometry%22%2F%3E%3C%2FmxCell%3E%3C%2Froot%3E%3C%2FmxGraphModel%3E&lt;/span&gt;" style="text;html=1;strokeColor=none;fillColor=none;align=center;verticalAlign=middle;whiteSpace=wrap;rounded=0;" vertex="1" parent="1">
          <mxGeometry x="700" y="550" width="60" height="30" as="geometry" />
        </mxCell>
        <mxCell id="b52QZDlkduQ0GEX2dBQ2-23" value="k2" style="text;html=1;strokeColor=none;fillColor=none;align=center;verticalAlign=middle;whiteSpace=wrap;rounded=0;" vertex="1" parent="1">
          <mxGeometry x="700" y="580" width="60" height="30" as="geometry" />
        </mxCell>
        <mxCell id="b52QZDlkduQ0GEX2dBQ2-24" value="非对称加密&lt;br&gt;f(pk,data)=y&lt;br&gt;f(sk,y)=data&lt;br&gt;&lt;br&gt;f(sk,data)=y&quot;&lt;br&gt;f(pk,y&quot;)=data" style="text;html=1;strokeColor=none;fillColor=none;align=center;verticalAlign=middle;whiteSpace=wrap;rounded=0;" vertex="1" parent="1">
          <mxGeometry x="80" y="880" width="220" height="90" as="geometry" />
        </mxCell>
        <mxCell id="b52QZDlkduQ0GEX2dBQ2-25" value="浏览器" style="whiteSpace=wrap;html=1;aspect=fixed;" vertex="1" parent="1">
          <mxGeometry x="150" y="1010" width="80" height="80" as="geometry" />
        </mxCell>
        <mxCell id="b52QZDlkduQ0GEX2dBQ2-26" value="服务器" style="whiteSpace=wrap;html=1;aspect=fixed;" vertex="1" parent="1">
          <mxGeometry x="660" y="1010" width="80" height="80" as="geometry" />
        </mxCell>
        <mxCell id="b52QZDlkduQ0GEX2dBQ2-27" value="" style="endArrow=classic;html=1;rounded=0;entryX=0;entryY=0.25;entryDx=0;entryDy=0;" edge="1" parent="1" target="b52QZDlkduQ0GEX2dBQ2-26">
          <mxGeometry width="50" height="50" relative="1" as="geometry">
            <mxPoint x="230" y="1030" as="sourcePoint" />
            <mxPoint x="280" y="980" as="targetPoint" />
          </mxGeometry>
        </mxCell>
        <mxCell id="b52QZDlkduQ0GEX2dBQ2-28" value="" style="endArrow=classic;html=1;rounded=0;entryX=1;entryY=0.75;entryDx=0;entryDy=0;" edge="1" parent="1" target="b52QZDlkduQ0GEX2dBQ2-25">
          <mxGeometry width="50" height="50" relative="1" as="geometry">
            <mxPoint x="660" y="1070" as="sourcePoint" />
            <mxPoint x="710" y="1020" as="targetPoint" />
          </mxGeometry>
        </mxCell>
        <mxCell id="b52QZDlkduQ0GEX2dBQ2-29" value="公钥: pk&lt;br&gt;私钥: sk" style="text;html=1;strokeColor=none;fillColor=none;align=center;verticalAlign=middle;whiteSpace=wrap;rounded=0;" vertex="1" parent="1">
          <mxGeometry x="740" y="1000" width="60" height="30" as="geometry" />
        </mxCell>
        <mxCell id="b52QZDlkduQ0GEX2dBQ2-30" value="黑客" style="shape=umlActor;verticalLabelPosition=bottom;verticalAlign=top;html=1;outlineConnect=0;" vertex="1" parent="1">
          <mxGeometry x="430" y="1240" width="30" height="60" as="geometry" />
        </mxCell>
        <mxCell id="b52QZDlkduQ0GEX2dBQ2-31" value="公钥:pk" style="text;html=1;strokeColor=none;fillColor=none;align=center;verticalAlign=middle;whiteSpace=wrap;rounded=0;" vertex="1" parent="1">
          <mxGeometry x="90" y="1010" width="60" height="30" as="geometry" />
        </mxCell>
        <mxCell id="b52QZDlkduQ0GEX2dBQ2-32" value="公钥:pk" style="text;html=1;strokeColor=none;fillColor=none;align=center;verticalAlign=middle;whiteSpace=wrap;rounded=0;" vertex="1" parent="1">
          <mxGeometry x="470" y="1220" width="60" height="30" as="geometry" />
        </mxCell>
        <mxCell id="b52QZDlkduQ0GEX2dBQ2-33" value="y" style="text;html=1;strokeColor=none;fillColor=none;align=center;verticalAlign=middle;whiteSpace=wrap;rounded=0;" vertex="1" parent="1">
          <mxGeometry x="384" y="1005" width="60" height="30" as="geometry" />
        </mxCell>
        <mxCell id="b52QZDlkduQ0GEX2dBQ2-34" value="data" style="text;html=1;strokeColor=none;fillColor=none;align=center;verticalAlign=middle;whiteSpace=wrap;rounded=0;" vertex="1" parent="1">
          <mxGeometry x="740" y="1035" width="60" height="30" as="geometry" />
        </mxCell>
        <mxCell id="b52QZDlkduQ0GEX2dBQ2-35" value="" style="endArrow=classic;html=1;rounded=0;entryX=0.5;entryY=1;entryDx=0;entryDy=0;" edge="1" parent="1" target="b52QZDlkduQ0GEX2dBQ2-33">
          <mxGeometry width="50" height="50" relative="1" as="geometry">
            <mxPoint x="445" y="1230" as="sourcePoint" />
            <mxPoint x="495" y="1220" as="targetPoint" />
          </mxGeometry>
        </mxCell>
        <mxCell id="b52QZDlkduQ0GEX2dBQ2-36" value="密文: y" style="text;html=1;strokeColor=none;fillColor=none;align=center;verticalAlign=middle;whiteSpace=wrap;rounded=0;" vertex="1" parent="1">
          <mxGeometry x="470" y="1250" width="60" height="30" as="geometry" />
        </mxCell>
        <mxCell id="b52QZDlkduQ0GEX2dBQ2-37" value="浏览器向服务器提交的数据完全安全" style="text;html=1;strokeColor=none;fillColor=none;align=center;verticalAlign=middle;whiteSpace=wrap;rounded=0;" vertex="1" parent="1">
          <mxGeometry x="510" y="890" width="210" height="30" as="geometry" />
        </mxCell>
        <mxCell id="b52QZDlkduQ0GEX2dBQ2-38" value="y&quot;" style="text;html=1;strokeColor=none;fillColor=none;align=center;verticalAlign=middle;whiteSpace=wrap;rounded=0;" vertex="1" parent="1">
          <mxGeometry x="430" y="1070" width="60" height="30" as="geometry" />
        </mxCell>
        <mxCell id="b52QZDlkduQ0GEX2dBQ2-39" value="" style="endArrow=classic;html=1;rounded=0;entryX=0.5;entryY=1;entryDx=0;entryDy=0;" edge="1" parent="1" target="b52QZDlkduQ0GEX2dBQ2-38">
          <mxGeometry width="50" height="50" relative="1" as="geometry">
            <mxPoint x="460" y="1230" as="sourcePoint" />
            <mxPoint x="510" y="1180" as="targetPoint" />
          </mxGeometry>
        </mxCell>
        <mxCell id="b52QZDlkduQ0GEX2dBQ2-40" value="对称加密与非对称加密结合" style="text;html=1;strokeColor=none;fillColor=none;align=center;verticalAlign=middle;whiteSpace=wrap;rounded=0;" vertex="1" parent="1">
          <mxGeometry x="60" y="1400" width="180" height="30" as="geometry" />
        </mxCell>
        <mxCell id="b52QZDlkduQ0GEX2dBQ2-41" value="浏览器" style="whiteSpace=wrap;html=1;aspect=fixed;" vertex="1" parent="1">
          <mxGeometry x="110" y="1465" width="80" height="80" as="geometry" />
        </mxCell>
        <mxCell id="b52QZDlkduQ0GEX2dBQ2-42" value="服务器" style="whiteSpace=wrap;html=1;aspect=fixed;" vertex="1" parent="1">
          <mxGeometry x="620" y="1465" width="80" height="80" as="geometry" />
        </mxCell>
        <mxCell id="b52QZDlkduQ0GEX2dBQ2-43" value="" style="endArrow=classic;html=1;rounded=0;entryX=0;entryY=0.25;entryDx=0;entryDy=0;" edge="1" parent="1" target="b52QZDlkduQ0GEX2dBQ2-42">
          <mxGeometry width="50" height="50" relative="1" as="geometry">
            <mxPoint x="190" y="1485" as="sourcePoint" />
            <mxPoint x="240" y="1435" as="targetPoint" />
          </mxGeometry>
        </mxCell>
        <mxCell id="b52QZDlkduQ0GEX2dBQ2-44" value="" style="endArrow=classic;html=1;rounded=0;entryX=1;entryY=0.75;entryDx=0;entryDy=0;" edge="1" parent="1" target="b52QZDlkduQ0GEX2dBQ2-41">
          <mxGeometry width="50" height="50" relative="1" as="geometry">
            <mxPoint x="620" y="1525" as="sourcePoint" />
            <mxPoint x="670" y="1475" as="targetPoint" />
          </mxGeometry>
        </mxCell>
        <mxCell id="b52QZDlkduQ0GEX2dBQ2-45" value="公钥:pk" style="text;html=1;strokeColor=none;fillColor=none;align=center;verticalAlign=middle;whiteSpace=wrap;rounded=0;" vertex="1" parent="1">
          <mxGeometry x="50" y="1465" width="60" height="30" as="geometry" />
        </mxCell>
        <mxCell id="b52QZDlkduQ0GEX2dBQ2-48" value="公钥:pk" style="text;html=1;strokeColor=none;fillColor=none;align=center;verticalAlign=middle;whiteSpace=wrap;rounded=0;" vertex="1" parent="1">
          <mxGeometry x="700" y="1465" width="60" height="30" as="geometry" />
        </mxCell>
        <mxCell id="b52QZDlkduQ0GEX2dBQ2-49" value="密文xx(s+pk)" style="text;html=1;strokeColor=none;fillColor=none;align=center;verticalAlign=middle;whiteSpace=wrap;rounded=0;" vertex="1" parent="1">
          <mxGeometry x="340" y="1450" width="150" height="30" as="geometry" />
        </mxCell>
        <mxCell id="b52QZDlkduQ0GEX2dBQ2-50" value="私钥: sk" style="text;html=1;strokeColor=none;fillColor=none;align=center;verticalAlign=middle;whiteSpace=wrap;rounded=0;" vertex="1" parent="1">
          <mxGeometry x="700" y="1490" width="60" height="30" as="geometry" />
        </mxCell>
        <mxCell id="b52QZDlkduQ0GEX2dBQ2-51" value="字符串: s" style="text;html=1;strokeColor=none;fillColor=none;align=center;verticalAlign=middle;whiteSpace=wrap;rounded=0;" vertex="1" parent="1">
          <mxGeometry x="50" y="1490" width="60" height="30" as="geometry" />
        </mxCell>
        <mxCell id="b52QZDlkduQ0GEX2dBQ2-52" value="黑客" style="shape=umlActor;verticalLabelPosition=bottom;verticalAlign=top;html=1;outlineConnect=0;" vertex="1" parent="1">
          <mxGeometry x="390" y="1694" width="30" height="60" as="geometry" />
        </mxCell>
        <mxCell id="b52QZDlkduQ0GEX2dBQ2-53" value="公钥:pk" style="text;html=1;strokeColor=none;fillColor=none;align=center;verticalAlign=middle;whiteSpace=wrap;rounded=0;" vertex="1" parent="1">
          <mxGeometry x="440" y="1660" width="60" height="30" as="geometry" />
        </mxCell>
        <mxCell id="b52QZDlkduQ0GEX2dBQ2-54" value="字符串: s" style="text;html=1;strokeColor=none;fillColor=none;align=center;verticalAlign=middle;whiteSpace=wrap;rounded=0;" vertex="1" parent="1">
          <mxGeometry x="700" y="1520" width="60" height="30" as="geometry" />
        </mxCell>
        <mxCell id="b52QZDlkduQ0GEX2dBQ2-56" value="明文: data" style="text;html=1;strokeColor=none;fillColor=none;align=center;verticalAlign=middle;whiteSpace=wrap;rounded=0;" vertex="1" parent="1">
          <mxGeometry x="50" y="1520" width="60" height="30" as="geometry" />
        </mxCell>
        <mxCell id="b52QZDlkduQ0GEX2dBQ2-57" value="data" style="text;html=1;strokeColor=none;fillColor=none;align=center;verticalAlign=middle;whiteSpace=wrap;rounded=0;" vertex="1" parent="1">
          <mxGeometry x="700" y="1550" width="60" height="30" as="geometry" />
        </mxCell>
        <mxCell id="b52QZDlkduQ0GEX2dBQ2-58" value="密文:xx" style="text;html=1;strokeColor=none;fillColor=none;align=center;verticalAlign=middle;whiteSpace=wrap;rounded=0;" vertex="1" parent="1">
          <mxGeometry x="440" y="1690" width="60" height="30" as="geometry" />
        </mxCell>
        <mxCell id="b52QZDlkduQ0GEX2dBQ2-59" value="" style="endArrow=classic;html=1;rounded=0;entryX=0;entryY=0.5;entryDx=0;entryDy=0;" edge="1" parent="1" target="b52QZDlkduQ0GEX2dBQ2-42">
          <mxGeometry width="50" height="50" relative="1" as="geometry">
            <mxPoint x="190" y="1505" as="sourcePoint" />
            <mxPoint x="240" y="1455" as="targetPoint" />
          </mxGeometry>
        </mxCell>
        <mxCell id="b52QZDlkduQ0GEX2dBQ2-60" value="密文yy(data+s)" style="text;html=1;strokeColor=none;fillColor=none;align=center;verticalAlign=middle;whiteSpace=wrap;rounded=0;" vertex="1" parent="1">
          <mxGeometry x="340" y="1480" width="120" height="30" as="geometry" />
        </mxCell>
        <mxCell id="b52QZDlkduQ0GEX2dBQ2-61" value="密文: yy" style="text;html=1;strokeColor=none;fillColor=none;align=center;verticalAlign=middle;whiteSpace=wrap;rounded=0;" vertex="1" parent="1">
          <mxGeometry x="444" y="1720" width="60" height="30" as="geometry" />
        </mxCell>
        <mxCell id="b52QZDlkduQ0GEX2dBQ2-62" value="密文yy(data+s)" style="text;html=1;strokeColor=none;fillColor=none;align=center;verticalAlign=middle;whiteSpace=wrap;rounded=0;" vertex="1" parent="1">
          <mxGeometry x="345" y="1520" width="120" height="30" as="geometry" />
        </mxCell>
        <mxCell id="b52QZDlkduQ0GEX2dBQ2-63" value="无法获取data数据" style="text;html=1;strokeColor=none;fillColor=none;align=center;verticalAlign=middle;whiteSpace=wrap;rounded=0;" vertex="1" parent="1">
          <mxGeometry x="324" y="1640" width="136" height="30" as="geometry" />
        </mxCell>
        <mxCell id="b52QZDlkduQ0GEX2dBQ2-64" value="服务器的安全性: 与我交互的服务器是不是真实的服务器&amp;nbsp; (中间人)" style="text;html=1;strokeColor=none;fillColor=none;align=center;verticalAlign=middle;whiteSpace=wrap;rounded=0;" vertex="1" parent="1">
          <mxGeometry x="60" y="1860" width="360" height="30" as="geometry" />
        </mxCell>
        <mxCell id="b52QZDlkduQ0GEX2dBQ2-65" value="浏览器" style="whiteSpace=wrap;html=1;aspect=fixed;" vertex="1" parent="1">
          <mxGeometry x="125" y="1935" width="80" height="80" as="geometry" />
        </mxCell>
        <mxCell id="b52QZDlkduQ0GEX2dBQ2-66" value="服务器" style="whiteSpace=wrap;html=1;aspect=fixed;" vertex="1" parent="1">
          <mxGeometry x="635" y="1935" width="80" height="80" as="geometry" />
        </mxCell>
        <mxCell id="b52QZDlkduQ0GEX2dBQ2-67" value="" style="endArrow=classic;html=1;rounded=0;" edge="1" parent="1">
          <mxGeometry width="50" height="50" relative="1" as="geometry">
            <mxPoint x="205" y="1955" as="sourcePoint" />
            <mxPoint x="370" y="1955" as="targetPoint" />
          </mxGeometry>
        </mxCell>
        <mxCell id="b52QZDlkduQ0GEX2dBQ2-68" value="" style="endArrow=classic;html=1;rounded=0;" edge="1" parent="1">
          <mxGeometry width="50" height="50" relative="1" as="geometry">
            <mxPoint x="635" y="1995" as="sourcePoint" />
            <mxPoint x="440" y="1995" as="targetPoint" />
          </mxGeometry>
        </mxCell>
        <mxCell id="b52QZDlkduQ0GEX2dBQ2-72" value="是否可靠" style="text;html=1;strokeColor=none;fillColor=none;align=center;verticalAlign=middle;whiteSpace=wrap;rounded=0;" vertex="1" parent="1">
          <mxGeometry x="635" y="1890" width="60" height="30" as="geometry" />
        </mxCell>
        <mxCell id="b52QZDlkduQ0GEX2dBQ2-73" value="黑客服务器" style="shape=cylinder3;whiteSpace=wrap;html=1;boundedLbl=1;backgroundOutline=1;size=15;" vertex="1" parent="1">
          <mxGeometry x="375" y="1935" width="65" height="80" as="geometry" />
        </mxCell>
        <mxCell id="b52QZDlkduQ0GEX2dBQ2-74" value="" style="endArrow=classic;html=1;rounded=0;" edge="1" parent="1">
          <mxGeometry width="50" height="50" relative="1" as="geometry">
            <mxPoint x="440" y="1960" as="sourcePoint" />
            <mxPoint x="640" y="1960" as="targetPoint" />
          </mxGeometry>
        </mxCell>
        <mxCell id="b52QZDlkduQ0GEX2dBQ2-75" value="" style="endArrow=classic;html=1;rounded=0;" edge="1" parent="1">
          <mxGeometry width="50" height="50" relative="1" as="geometry">
            <mxPoint x="370" y="2000" as="sourcePoint" />
            <mxPoint x="210" y="2000" as="targetPoint" />
          </mxGeometry>
        </mxCell>
        <mxCell id="b52QZDlkduQ0GEX2dBQ2-76" value="CA机构&amp;nbsp;" style="text;html=1;strokeColor=none;fillColor=none;align=center;verticalAlign=middle;whiteSpace=wrap;rounded=0;" vertex="1" parent="1">
          <mxGeometry x="60" y="2120" width="60" height="30" as="geometry" />
        </mxCell>
        <mxCell id="b52QZDlkduQ0GEX2dBQ2-77" value="" style="endArrow=classic;html=1;rounded=0;" edge="1" parent="1">
          <mxGeometry width="50" height="50" relative="1" as="geometry">
            <mxPoint x="120" y="2130" as="sourcePoint" />
            <mxPoint x="390" y="2020" as="targetPoint" />
          </mxGeometry>
        </mxCell>
        <mxCell id="b52QZDlkduQ0GEX2dBQ2-78" value="" style="endArrow=classic;html=1;rounded=0;" edge="1" parent="1">
          <mxGeometry width="50" height="50" relative="1" as="geometry">
            <mxPoint x="120" y="2130" as="sourcePoint" />
            <mxPoint x="650" y="2020" as="targetPoint" />
          </mxGeometry>
        </mxCell>
        <mxCell id="b52QZDlkduQ0GEX2dBQ2-79" value="ssl颁发证书" style="text;html=1;strokeColor=none;fillColor=none;align=center;verticalAlign=middle;whiteSpace=wrap;rounded=0;" vertex="1" parent="1">
          <mxGeometry x="340" y="2090" width="80" height="30" as="geometry" />
        </mxCell>
      </root>
    </mxGraphModel>
  </diagram>
</mxfile>
